# xmcd
#
# Track frame offsets:
#	150
#	14307
#	25800
#	40620
#	53150
#	68335
#	79282
#	91900
#	102287
#	113992
#	127022
#	139547
#	153850
#	164927
#	175225
#
# Disc length: 2512
#
# Revision: 1
# Processed by: cddbd v1.5.1PL0 Copyright (c) Steve Scherf et al.
# Submitted via: dBpowerAMP V4.0
# Normalized: r0:TRMNUM
#
DISCID=bc09ce0f
DTITLE=N‰‰svillen Veljekset - Taksin taustapeili
DYEAR=1900
DGENRE=
TTITLE0=Taksin taustapeili
TTITLE1=Vanha rakkauslaulu
TTITLE2=Viimeinen l‰tt‰hattu lieksaan
TTITLE3=Min‰ l‰hden huitsin nevadaan
TTITLE4=T‰hdet
TTITLE5=Tiikerikakku
TTITLE6=Harald hirmuinen
TTITLE7=Sade peitt‰‰ onnellisten j‰ljet
TTITLE8=Kun pohjoisesta tuulee
TTITLE9=Poika t‰m‰n maan
TTITLE10=Anna miehen pit‰‰ unelmansa
TTITLE11=Yhden tyylin taitaja
TTITLE12=Laatokan kiert‰j‰
TTITLE13=On aika tullut
TTITLE14=Takaisin
EXTD=
EXTT0=
EXTT1=
EXTT2=
EXTT3=
EXTT4=
EXTT5=
EXTT6=
EXTT7=
EXTT8=
EXTT9=
EXTT10=
EXTT11=
EXTT12=
EXTT13=
EXTT14=
PLAYORDER=
